<?xml version="1.0" encoding="UTF-8" standalone="no"?>
<svg
   width="223.55276"
   height="48.96003"
   viewBox="0 0 223.55276 48.960029"
   fill="none"
   version="1.1"
   id="svg19"
   xmlns="http://www.w3.org/2000/svg"
   xmlns:svg="http://www.w3.org/2000/svg">
  <defs
     id="defs19" />
  <path
     d="m 30.281204,11.38887 -0.0335,-0.01975 -0.078,-0.02375 c 0.0315,0.0264 0.0705,0.0417 0.1115,0.0435 z"
     fill="#000000"
     id="path1"
     style="stroke-width:0.5" />
  <path
     d="m 30.773704,14.88667 -0.0375,0.0105 z"
     fill="#000000"
     id="path2"
     style="stroke-width:0.5" />
  <path
     d="m 30.294704,11.38307 c -0.005,-5.5e-4 -0.008,-0.0015 -0.0125,-0.0029 -5e-4,0.0027 -5e-4,0.0055 0,0.0083 0.005,-6e-4 0.008,-0.0025 0.0125,-0.0053 z"
     fill="#000000"
     id="path3"
     style="stroke-width:0.5" />
  <path
     d="m 30.281704,11.39022 h 0.006 v -0.0039 z"
     fill="#000000"
     id="path4"
     style="stroke-width:0.5" />
  <path
     d="m 30.743704,14.88027 0.0565,-0.03225 0.021,-0.0119 0.019,-0.0204 c -0.0355,0.0155 -0.0685,0.03735 -0.0965,0.06455 z"
     fill="#000000"
     id="path5"
     style="stroke-width:0.5" />
  <path
     d="m 30.377704,11.46562 -0.0555,-0.0527 -0.0375,-0.0204 c 0.0205,0.0356 0.0535,0.06185 0.093,0.0731 z"
     fill="#000000"
     id="path6"
     style="stroke-width:0.5" />
  <path
     d="m 16.460254,45.40647 c -0.0443,0.019 -0.083,0.049 -0.11265,0.087 l 0.0349,-0.0225 c 0.0237,-0.0215 0.0573,-0.0475 0.0778,-0.0645 z"
     fill="#000000"
     id="path7"
     style="stroke-width:0.5" />
  <path
     d="m 24.543004,43.81647 c 0,-0.05 -0.0244,-0.041 -0.0185,0.137 0,-0.0145 0.006,-0.029 0.009,-0.043 0.003,-0.0315 0.006,-0.0625 0.01,-0.094 z"
     fill="#000000"
     id="path8"
     style="stroke-width:0.5" />
  <path
     d="m 23.708254,45.40647 c -0.0442,0.019 -0.0829,0.049 -0.1126,0.087 l 0.0349,-0.0225 c 0.0237,-0.0215 0.0573,-0.0475 0.0777,-0.0645 z"
     fill="#000000"
     id="path9"
     style="stroke-width:0.5" />
  <path
     d="m 10.764504,45.78497 c -0.0336,-0.029 -0.0747,-0.0485 -0.11855,-0.0555 0.0356,0.0175 0.0711,0.0345 0.0948,0.0475 z"
     fill="#000000"
     id="path10"
     style="stroke-width:0.5" />
  <path
     d="m 9.4854042,44.55847 c -0.005,-0.052 -0.0212,-0.102 -0.0468,-0.1475 0.0182,0.047 0.0333,0.0955 0.0455,0.145 z"
     fill="#000000"
     id="path11"
     style="stroke-width:0.5" />
  <path
     d="m 18.088604,22.61682 c -1.75865,0.75285 -3.7544,1.60645 -6.34095,1.60645 -1.08205,-0.0022 -2.1587998,-0.1506 -3.2010998,-0.4413 l 1.7889498,18.367 c 0.0633,0.7675 0.41305,1.4835 0.9797,2.005 0.56665,0.522 1.3088,0.8115 2.0791,0.811 0,0 2.5365,0.132 3.3829,0.132 0.9109,0 3.6424,-0.132 3.6424,-0.132 0.77015,0 1.51215,-0.2895 2.0787,-0.811 0.5665,-0.522 0.91615,-1.2375 0.97945,-2.005 l 1.91605,-20.2962 c -0.85625,-0.29245 -1.7204,-0.48675 -2.6946,-0.48675 -1.68485,-6.5e-4 -3.04235,0.5796 -4.6106,1.2508 z"
     fill="white"
     id="path12"
     style="fill:#ffdd00;fill-opacity:1;stroke-width:0.5" />
  <path
     d="m 3.0124042,14.78102 0.0303,0.0283 0.0198,0.01185 c -0.0152,-0.0151 -0.032,-0.0286 -0.05,-0.04015 z"
     fill="#000000"
     id="path13"
     style="stroke-width:0.5" />
  <path
     d="m 33.669704,13.08592 -0.269,-1.3588 c -0.242,-1.2192 -0.7905,-2.3711998 -2.042,-2.8118498 -0.401,-0.14095 -0.8565,-0.20155 -1.164,-0.4933 -0.3075,-0.2918 -0.3985,-0.74495 -0.4695,-1.1652 -0.1315,-0.7713 -0.2555,-1.54325 -0.3905,-2.3132 -0.1165,-0.66195 -0.209,-1.4056 -0.5125,-2.01285 -0.395,-0.81545 -1.215,-1.2923 -2.0305,-1.6078 -0.418,-0.156 -0.8445,-0.28795 -1.2773,-0.39520003 -2.03725,-0.5375 -4.1792,-0.7351 -6.2751,-0.8477 -2.5156,-0.1388 -5.03795,-0.097 -7.5476,0.12515 -1.8679498,0.1699 -3.8353498,0.37545 -5.6104498,1.02155003 -0.6488,0.2365 -1.3173,0.52035 -1.81065,1.0216 -0.6053,0.61585 -0.8029,1.5683 -0.36095,2.33625 0.3142,0.5454 0.8464,0.9307 1.41085,1.1856 0.73525,0.32845 1.5031,0.57835 2.2908,0.7456 2.19335,0.4848 4.4650998,0.67515 6.7058498,0.75615 2.48355,0.10025 4.97115,0.019 7.44285,-0.24305 0.61125,-0.06715 1.2214,-0.14775 1.83045,-0.2417 0.71725,-0.11 1.17765,-1.04795 0.96625,-1.70135 -0.25295,-0.78115 -0.93265,-1.08415 -1.70135,-0.96625 -0.11325,0.0178 -0.2259,0.03425 -0.3392,0.05075 l -0.0817,0.01185 c -0.2604,0.0329 -0.5208,0.06365 -0.7812,0.0922 -0.5379,0.05795 -1.0771,0.1054 -1.61765,0.14225 -1.2106,0.0843 -2.42455,0.1232 -3.6378,0.12515 -1.19215,0 -2.385,-0.0336 -3.57455,-0.11195 -0.54275,-0.0356 -1.08415,-0.0808 -1.62425,-0.1357 -0.2457,-0.0257 -0.4907,-0.0527 -0.73575,-0.083 l -0.23315,-0.02965 -0.0507,-0.0072 -0.2417498,-0.03495 c -0.494,-0.0744 -0.988,-0.16005 -1.4767,-0.26345 -0.0493,-0.01095 -0.0935,-0.03835 -0.12505,-0.07775 -0.0316,-0.0394 -0.0489,-0.08845 -0.0489,-0.13895 0,-0.0505 0.0173,-0.0995 0.0489,-0.1389 0.0316,-0.0394 0.0757,-0.06685 0.12505,-0.0778 h 0.009 c 0.42355,-0.09025 0.85035,-0.1673 1.27845,-0.2345 0.14275,-0.02235 0.2858998,-0.04435 0.4294498,-0.06585 h 0.004 c 0.2681,-0.0178 0.5375,-0.06585 0.80425,-0.0975 2.3209,-0.2414 4.6556,-0.3237 6.98775,-0.2463 1.1322,0.0329 2.2638,0.09945 3.39075,0.21405 0.2424,0.02505 0.4835,0.0514 0.72455,0.081 0.0922,0.0112 0.1851,0.0244 0.27795,0.0356 l 0.18705,0.027 c 0.5454,0.0812 1.0879,0.1798 1.62755,0.29575 0.79965,0.17385 1.8263,0.2305 2.1823,1.10655 0.113,0.27795 0.1645,0.58685 0.227,0.87865 l 0.08,0.3721 c 0.002,0.0067 0.004,0.01355 0.005,0.02045 0.1885,0.8782 0.377,1.7564 0.5655,2.63465 0.014,0.06485 0.0145,0.1319 0.001,0.1969 -0.013,0.065 -0.0395,0.1266 -0.0775,0.1809 -0.038,0.05435 -0.087,0.10025 -0.1435,0.13485 -0.0565,0.0346 -0.12,0.05715 -0.1855,0.0663 h -0.006 l -0.115,0.0158 -0.114,0.01515 c -0.361,0.047 -0.7225,0.0909 -1.0842,0.13175 -0.71265,0.0812 -1.4264,0.1515 -2.1413,0.21075 -1.4205,0.11815 -2.84385,0.19565 -4.2701,0.2325 -0.7267,0.01935 -1.4532,0.02835 -2.1795,0.027 -2.89085,-0.0023 -5.7792,-0.17025 -8.6508498,-0.5032 -0.3109,-0.0369 -0.62175,-0.0764 -0.93265,-0.1166 0.24105,0.031 -0.1752,-0.0237 -0.2595,-0.03555 -0.1976,-0.02765 -0.3952,-0.0564 -0.5928,-0.0863 -0.6633,-0.09945 -1.3226,-0.22195 -1.98455,-0.3293 -0.8003,-0.13175 -1.56565,-0.06585 -2.2895,0.3293 -0.5942,0.32515 -1.0751,0.8238 -1.37860005,1.4292998 -0.3122,0.6455 -0.40505,1.3483 -0.5447,2.04185 -0.13965,0.6936 -0.357,1.43985 -0.27465,2.15185 0.17715,1.53665 1.25145005,2.7855 2.79665005,3.06475 1.45365,0.26345 2.91525,0.4769 4.38075,0.65865 5.7568998,0.7051 11.5728998,0.78945 17.3477998,0.25165 0.4703,-0.04395 0.93995,-0.0918 1.4087,-0.1436 0.1465,-0.0161 0.295,7.5e-4 0.434,0.0494 0.139,0.0486 0.2655,0.1277 0.37,0.2315 0.1045,0.10385 0.185,0.22975 0.2345,0.3685 0.0495,0.13875 0.0675,0.28685 0.0525,0.43345 l -0.1465,1.42135 c -0.2945,2.8722 -0.589,5.7442 -0.8835,8.61595 -0.3075,3.0158 -0.61695,6.0314 -0.92825,9.0465 -0.0879,0.8495 -0.17565,1.6985 -0.2635,2.5475 -0.0843,0.8355 -0.0961,1.698 -0.2549,2.524 -0.25025,1.2985 -1.1296,2.0965 -2.41265,2.388 -1.1755,0.2675 -2.3763,0.408 -3.5818,0.419 -1.3364,0.007 -2.6722,-0.052 -4.0086,-0.045 -1.42665,0.008 -3.1741,-0.1235 -4.2754,-1.1855 -0.9675498,-0.9325 -1.1012498,-2.393 -1.2329998,-3.6555 -0.17565,-1.6715 -0.34975,-3.343 -0.5223,-5.0145 l -0.96825,-9.2929 -0.6264,-6.01295 c -0.0105,-0.09945 -0.0211,-0.1976 -0.0309,-0.2977 -0.0751,-0.71725 -0.5829,-1.4194 -1.38315,-1.3832 -0.68505,0.0303 -1.46355,0.61255 -1.3832,1.3832 l 0.46435,4.4578 0.9603,9.2213 c 0.2736,2.61945 0.5465,5.23895 0.81875,7.85895 0.0527,0.502 0.1021,1.0055 0.1574,1.507 0.301,2.743 2.39555,4.221 4.9893498,4.637 1.51495,0.244 3.06675,0.294 4.60405,0.319 1.9707,0.0315 3.9612,0.1075 5.89965,-0.2495 2.8724,-0.527 5.0275,-2.445 5.335,-5.4205 0.088,-0.8585 0.176,-1.718 0.2635,-2.577 0.292,-2.842 0.5835,-5.68415 0.875,-8.5265 l 0.952,-9.28715 0.437,-4.25625 c 0.0215,-0.21105 0.111,-0.4095 0.254,-0.56595 0.1435,-0.15645 0.3335,-0.26265 0.5415,-0.3028 0.8215,-0.1601 1.6065,-0.4334 2.191,-1.0585 0.93,-0.99525 1.115,-2.2928 0.786,-3.6009 z m -30.8968998,0.9182 c 0.0125,-0.0059 -0.0105,0.1014 -0.0204,0.1515 -0.002,-0.07575 0.002,-0.14295 0.0204,-0.1515 z m 0.0797,0.6165 c 0.007,-0.0046 0.0264,0.02175 0.0468,0.05335 -0.031,-0.029 -0.0507,-0.0507 -0.0474,-0.05335 z m 0.0784,0.1034 c 0.0283,0.0481 0.0435,0.0784 0,0 z m 0.1574,0.1278 h 0.004 c 0,0.0046 0.007,0.0092 0.01,0.0138 -0.004,-0.0051 -0.009,-0.0097 -0.0145,-0.0138 z M 30.654704,14.66077 c -0.295,0.2806 -0.74,0.41105 -1.179,0.47625 -4.9269,0.7311 -9.9255,1.10125 -14.9063,0.9379 -3.56465,-0.12185 -7.0917998,-0.5177 -10.6208998,-1.0163 -0.3458,-0.04875 -0.72055,-0.11195 -0.95835,-0.36685 -0.4479,-0.48085 -0.2279,-1.4491 -0.1113,-2.03 0.1067,-0.5322 0.3109,-1.2416 0.94385,-1.31735 0.988,-0.1159 2.1354,0.301 3.11285,0.4492 1.1768,0.1796 2.358,0.3234 3.5435998,0.43145 5.0598,0.46105 10.2046,0.38925 15.24205,-0.2852 0.918,-0.1234 1.833,-0.26675 2.7445,-0.4301 0.8125,-0.1456 1.7125,-0.4189 2.2035,0.4222 0.3365,0.573 0.381,1.3397 0.329,1.98715 -0.016,0.2821 -0.139,0.54745 -0.3445,0.74165 z"
     fill="#0D0C22"
     id="path14"
     style="fill:#ffffff;fill-opacity:1;stroke-width:0.5" />
  <path
     fill-rule="evenodd"
     clip-rule="evenodd"
     d="m 60.538204,28.34982 c -0.2875,0.54905 -0.683,1.02725 -1.1865,1.433 -0.5035,0.40605 -1.0905,0.73665 -1.762,0.9912 -0.671,0.25515 -1.3465,0.42635 -2.0255,0.5136 -0.6795,0.0876 -1.339,0.08 -1.9775,-0.02395 -0.6395,-0.1033 -1.1835,-0.3142 -1.6305,-0.633 l 0.504,-5.23085 c 0.463,-0.15905 1.046,-0.3224 1.7495,-0.48965 0.703,-0.167 1.426,-0.2867 2.1695,-0.3582 0.7435,-0.0718 1.446,-0.06335 2.1095,0.02395 0.663,0.08755 1.1865,0.29845 1.57,0.633 0.208,0.1909 0.384,0.3979 0.5275,0.6209 0.144,0.22305 0.2315,0.45395 0.264,0.69275 0.0795,0.66875 -0.024,1.27785 -0.312,1.82725 z m -7.3115,-11.1426 c 0.3355,-0.20695 0.7395,-0.3903 1.2105,-0.5497 0.4715,-0.15875 0.955,-0.2706 1.4505,-0.3342 0.495,-0.06335 0.9785,-0.07185 1.4505,-0.02395 0.471,0.04785 0.887,0.1791 1.2465,0.39395 0.3595,0.21515 0.627,0.52575 0.803,0.9315 0.1755,0.40635 0.2235,0.91995 0.1435,1.54085 -0.0635,0.49365 -0.26,0.9118 -0.587,1.25395 -0.3275,0.3427 -0.7275,0.62905 -1.1985,0.86 -0.4715,0.2312 -0.971,0.4142 -1.498,0.54905 -0.528,0.13575 -1.0355,0.23545 -1.5225,0.2988 -0.4875,0.06395 -0.911,0.10395 -1.2705,0.1194 -0.3595,0.01605 -0.5955,0.0239 -0.7075,0.0239 z m 9.9005,7.76265 c -0.2555,-0.557 -0.599,-1.0467 -1.0305,-1.4691 -0.4315,-0.4218 -0.9435,-0.72815 -1.5345,-0.91935 0.2555,-0.207 0.5075,-0.53335 0.7555,-0.9794 0.2475,-0.44545 0.459,-0.9315 0.635,-1.45695 0.1755,-0.52575 0.296,-1.05485 0.3595,-1.58845 0.0635,-0.53335 0.0395,-0.9912 -0.0715,-1.37365 -0.2725,-0.9551 -0.6995,-1.7036 -1.283,-2.2451 -0.5835,-0.5412 -1.2625,-0.91545 -2.0375,-1.1227 -0.7755,-0.20635 -1.63,-0.2506 -2.565,-0.1312 -0.935,0.11935 -1.89,0.3542 -2.8645,0.7045 0,-0.0794 0.008,-0.163 0.024,-0.2506 0.0155,-0.08725 0.0235,-0.1791 0.0235,-0.27485 0,-0.23875 -0.1195,-0.44545 -0.3595,-0.6209 -0.2395,-0.17515 -0.515,-0.27845 -0.8265,-0.3106 -0.312,-0.0315 -0.6155,0.03575 -0.9115,0.20305 -0.2955,0.16725 -0.4995,0.47425 -0.611,0.91935 -0.128,1.43335 -0.256,2.9224 -0.3835,4.46665 -0.128,1.5448 -0.264,3.1054 -0.4075,4.68205 -0.144,1.5763 -0.288,3.14085 -0.4315,4.69325 -0.144,1.5527 -0.288,3.0454 -0.4315,4.4784 0.048,0.43 0.1675,0.76455 0.3595,1.00335 0.1915,0.23905 0.4155,0.3824 0.671,0.43 0.2555,0.04785 0.5235,0.0036 0.803,-0.13155 0.2795,-0.13485 0.5235,-0.3703 0.7315,-0.7045 0.639,0.3503 1.3585,0.57725 2.1575,0.6809 0.799,0.1033 1.6095,0.1033 2.4335,0 0.8225,-0.10365 1.6335,-0.2985 2.4325,-0.58545 0.799,-0.2864 1.5265,-0.64485 2.1815,-1.07455 0.6555,-0.43 1.2065,-0.92 1.6545,-1.46905 0.447,-0.5497 0.743,-1.14275 0.8865,-1.7794 0.144,-0.653 0.184,-1.3057 0.12,-1.95875 -0.064,-0.6527 -0.224,-1.25755 -0.4795,-1.8154 z"
     fill="#0D0C23"
     id="path15"
     style="fill:#ffffff;fill-opacity:1;stroke-width:0.5" />
  <path
     fill-rule="evenodd"
     clip-rule="evenodd"
     d="m 86.514704,37.58097 c -0.0875,0.5255 -0.212,1.079 -0.3715,1.6605 -0.16,0.5805 -0.3475,1.1105 -0.563,1.5885 -0.216,0.4775 -0.4555,0.863 -0.719,1.158 -0.264,0.2945 -0.548,0.418 -0.8515,0.3705 -0.2395,-0.0325 -0.3915,-0.1835 -0.455,-0.454 -0.0645,-0.271 -0.0645,-0.6055 0,-1.003 0.0635,-0.3985 0.187,-0.8485 0.371,-1.35 0.184,-0.5015 0.408,-0.9995 0.6715,-1.4925 0.264,-0.494 0.5635,-0.9675 0.899,-1.4215 0.3355,-0.4534 0.687,-0.8319 1.0545,-1.1343 0.08,0.09545 0.116,0.33425 0.108,0.71665 -0.009,0.38215 -0.056,0.83615 -0.144,1.36115 z m 8.127,-10.36615 c -0.216,-0.2388 -0.4795,-0.37395 -0.7915,-0.40605 -0.3115,-0.03185 -0.6275,0.1433 -0.9465,0.52545 -0.208,0.3821 -0.472,0.74845 -0.7915,1.09875 -0.3195,0.3506 -0.651,0.6688 -0.9945,0.95545 -0.344,0.28635 -0.6715,0.5336 -0.983,0.7403 -0.3115,0.20725 -0.5555,0.35845 -0.731,0.4539 -0.064,-0.50935 -0.1005,-1.05875 -0.108,-1.64815 -0.008,-0.5891 0.004,-1.18605 0.036,-1.7912 0.0475,-0.85995 0.1475,-1.72755 0.2995,-2.6036 0.152,-0.8757 0.3715,-1.7357 0.6595,-2.57995 0,-0.44545 -0.1045,-0.80785 -0.312,-1.08665 -0.208,-0.27845 -0.4595,-0.4539 -0.755,-0.52545 -0.296,-0.0715 -0.599,-0.0318 -0.911,0.1194 -0.3115,0.1515 -0.579,0.42635 -0.803,0.82395 -0.1915,0.52575 -0.4115,1.1148 -0.659,1.76755 -0.248,0.653 -0.5275,1.31785 -0.839,1.9945 -0.312,0.67725 -0.6595,1.3339 -1.043,1.9706 -0.3835,0.63725 -0.803,1.2027 -1.2585,1.696 -0.4555,0.49365 -0.951,0.88 -1.486,1.1585 -0.536,0.27875 -1.1145,0.4021 -1.738,0.3703 -0.288,-0.0797 -0.496,-0.29455 -0.6235,-0.64515 -0.128,-0.35 -0.204,-0.7882 -0.2275,-1.31365 -0.024,-0.52545 0,-1.1027 0.0715,-1.7318 0.072,-0.62875 0.168,-1.2539 0.288,-1.8748 0.1195,-0.6212 0.2515,-1.2103 0.395,-1.76755 0.144,-0.55725 0.2795,-1.02725 0.4075,-1.40935 0.192,-0.46155 0.192,-0.8482 0,-1.1585 -0.1915,-0.3106 -0.455,-0.51725 -0.7905,-0.6212 -0.3355,-0.1033 -0.6875,-0.0991 -1.055,0.01215 -0.3675,0.1115 -0.6315,0.35815 -0.791,0.74025 -0.272,0.65335 -0.52,1.38545 -0.7435,2.19755 -0.2235,0.81215 -0.4035,1.6524 -0.539,2.52 -0.136,0.86815 -0.2125,1.72815 -0.228,2.57995 -0.001,0.05545 0.002,0.10815 0.002,0.1633 -0.3485,0.92575 -0.6805,1.62545 -0.996,2.09365 -0.4075,0.6054 -0.8675,0.86815 -1.3785,0.78815 -0.2245,-0.09545 -0.3715,-0.3182 -0.4435,-0.6688 -0.0725,-0.35 -0.096,-0.77995 -0.0725,-1.28995 0.0245,-0.5091 0.0845,-1.08635 0.18,-1.7315 0.0965,-0.64485 0.2155,-1.3136 0.3595,-2.00635 0.144,-0.693 0.296,-1.38905 0.4555,-2.08995 0.16,-0.7006 0.3035,-1.3615 0.432,-1.9827 -0.016,-0.55725 -0.18,-0.983 -0.492,-1.27785 -0.311,-0.29425 -0.747,-0.4097 -1.306,-0.34635 -0.3835,0.15935 -0.6675,0.36665 -0.851,0.6212 -0.184,0.2545 -0.332,0.5812 -0.4435,0.97905 -0.0645,0.2073 -0.16,0.6212 -0.288,1.2424 -0.128,0.6206 -0.2915,1.33365 -0.4915,2.13755 -0.1995,0.80455 -0.4355,1.64425 -0.707,2.51995 -0.2715,0.87575 -0.5755,1.6685 -0.9105,2.37665 -0.336,0.7085 -0.7035,1.27785 -1.103,1.70785 -0.3995,0.4297 -0.831,0.60515 -1.2945,0.52545 -0.256,-0.04785 -0.4195,-0.3106 -0.4915,-0.78815 -0.072,-0.4779 -0.0835,-1.06665 -0.036,-1.76755 0.048,-0.7006 0.144,-1.4691 0.2875,-2.30485 0.144,-0.83605 0.2915,-1.62815 0.4435,-2.3769 0.152,-0.7482 0.292,-1.4094 0.42,-1.9824 0.1275,-0.57335 0.2155,-0.95545 0.2635,-1.14635 0,-0.4618 -0.1045,-0.8318 -0.3115,-1.1109 -0.208,-0.2782 -0.4595,-0.45365 -0.7555,-0.52545 -0.296,-0.0715 -0.5995,-0.0318 -0.9105,0.1194 -0.312,0.1515 -0.5795,0.42635 -0.8035,0.8239 -0.08,0.43 -0.184,0.9279 -0.3115,1.49305 -0.128,0.5651 -0.2515,1.14635 -0.3715,1.7436 -0.12,0.59725 -0.232,1.1824 -0.3355,1.7557 -0.104,0.57335 -0.18,1.07485 -0.228,1.50485 -0.032,0.33425 -0.068,0.74455 -0.1075,1.23 -0.0405,0.48605 -0.0605,0.99935 -0.0605,1.54055 0,0.54185 0.04,1.0791 0.1205,1.6124 0.0795,0.53365 0.2235,1.02335 0.431,1.4688 0.2075,0.44605 0.4995,0.8121 0.8755,1.09875 0.375,0.28665 0.8505,0.44575 1.426,0.4779 0.591,0.0315 1.1065,-0.01185 1.5465,-0.13155 0.439,-0.1194 0.8385,-0.30665 1.1985,-0.5615 0.3595,-0.25425 0.687,-0.55695 0.983,-0.90755 0.295,-0.35 0.587,-0.7321 0.8745,-1.14635 0.272,0.60545 0.6235,1.07485 1.055,1.40935 0.4315,0.33425 0.887,0.53365 1.3665,0.597 0.479,0.0633 0.967,-0.0037 1.4625,-0.20305 0.495,-0.1988 0.9425,-0.53725 1.342,-1.01515 0.2635,-0.293 0.5115,-0.62605 0.7445,-0.9942 0.099,0.1724 0.204,0.33875 0.3225,0.4924 0.3915,0.51 0.923,0.86 1.5945,1.0512 0.719,0.1912 1.4215,0.22335 2.109,0.09575 0.687,-0.12725 1.3425,-0.35845 1.9655,-0.6927 0.6235,-0.33455 1.2025,-0.73635 1.7385,-1.20635 0.535,-0.4697 1.0025,-0.9591 1.402,-1.46905 -0.016,0.36635 -0.024,0.713 -0.024,1.03905 0,0.32665 -0.008,0.6806 -0.0235,1.063 -0.7995,0.5576 -1.5545,1.22635 -2.2655,2.00635 -0.7115,0.78 -1.335,1.6121 -1.87,2.4959 -0.5355,0.8835 -0.955,1.7795 -1.258,2.687 -0.304,0.908 -0.452,1.756 -0.444,2.5445 0.008,0.788 0.1955,1.4765 0.5635,2.0655 0.367,0.5895 0.9665,1.011 1.7975,1.266 0.8635,0.271 1.622,0.2785 2.278,0.024 0.655,-0.255 1.226,-0.677 1.7135,-1.266 0.4875,-0.589 0.887,-1.3015 1.199,-2.1375 0.3115,-0.836 0.559,-1.708 0.743,-2.6155 0.1835,-0.9075 0.2995,-1.8 0.3475,-2.67515 0.048,-0.87605 0.048,-1.65665 0,-2.34115 1.3745,-0.57305 2.501,-1.2976 3.38,-2.17365 0.879,-0.8751 1.606,-1.79905 2.1815,-2.77055 0.1755,-0.2388 0.2355,-0.52545 0.18,-0.8597 -0.0565,-0.3345 -0.192,-0.6212 -0.4075,-0.85995 z"
     fill="#0D0C23"
     id="path16"
     style="fill:#ffffff;fill-opacity:1;stroke-width:0.5" />
  <path
     fill-rule="evenodd"
     clip-rule="evenodd"
     d="m 124.8822,25.68672 c 0.048,-0.36605 0.12,-0.7524 0.2155,-1.15845 0.096,-0.40605 0.216,-0.8003 0.36,-1.1824 0.1435,-0.3821 0.3115,-0.7124 0.5035,-0.9912 0.1915,-0.2785 0.3955,-0.47755 0.611,-0.59725 0.216,-0.1191 0.435,-0.1073 0.6595,0.03575 0.2395,0.14365 0.387,0.44605 0.4435,0.90755 0.0555,0.4624 0,0.95575 -0.168,1.4812 -0.168,0.52575 -0.4675,1.01905 -0.899,1.4809 -0.4315,0.4621 -1.015,0.7642 -1.75,0.90755 -0.032,-0.2224 -0.024,-0.51725 0.024,-0.88365 z m 8.306,0.9791 c -0.2635,-0.0791 -0.515,-0.08725 -0.755,-0.02365 -0.2395,0.06365 -0.3915,0.2309 -0.455,0.50185 -0.1285,0.50935 -0.3325,1.03085 -0.612,1.5642 -0.2795,0.53365 -0.623,1.03905 -1.03,1.51695 -0.4075,0.47755 -0.8675,0.8997 -1.3785,1.26575 -0.512,0.36635 -1.047,0.62905 -1.6065,0.78815 -0.5595,0.17545 -1.023,0.19515 -1.39,0.0597 -0.368,-0.13485 -0.6595,-0.36605 -0.875,-0.6924 -0.216,-0.32635 -0.372,-0.7206 -0.4675,-1.1824 -0.096,-0.46185 -0.152,-0.9394 -0.168,-1.43335 0.911,0.06395 1.722,-0.09905 2.4335,-0.48965 0.7105,-0.3897 1.314,-0.9076 1.8095,-1.55245 0.495,-0.6448 0.871,-1.36935 1.1265,-2.1736 0.2555,-0.8039 0.3995,-1.6042 0.4315,-2.40055 0.016,-0.7485 -0.0955,-1.3812 -0.3355,-1.89875 -0.2395,-0.5173 -0.5635,-0.92 -0.971,-1.20635 -0.407,-0.28665 -0.875,-0.45395 -1.402,-0.5015 -0.527,-0.0479 -1.063,0.0239 -1.6065,0.21485 -0.6555,0.223 -1.2105,0.5851 -1.666,1.08695 -0.4555,0.5015 -0.835,1.083 -1.1385,1.7436 -0.3035,0.6609 -0.5435,1.3733 -0.719,2.13755 -0.176,0.7645 -0.304,1.51695 -0.3835,2.25755 -0.072,0.6645 -0.1105,1.29995 -0.124,1.9133 -0.0345,0.07785 -0.0675,0.1527 -0.104,0.23605 -0.248,0.56575 -0.536,1.11905 -0.863,1.66025 -0.3275,0.54155 -0.6915,0.99545 -1.0905,1.3615 -0.3995,0.3664 -0.815,0.49365 -1.2465,0.38215 -0.256,-0.06335 -0.3955,-0.3585 -0.4195,-0.88365 -0.024,-0.52575 0.004,-1.17845 0.0835,-1.95875 0.08,-0.78 0.172,-1.6245 0.276,-2.5321 0.1035,-0.90755 0.1555,-1.7751 0.1555,-2.6033 0,-0.71665 -0.136,-1.4051 -0.4075,-2.0663 -0.272,-0.6603 -0.6435,-1.21 -1.1145,-1.64785 -0.4715,-0.4382 -1.019,-0.7288 -1.642,-0.8718 -0.6235,-0.14365 -1.2945,-0.0479 -2.0135,0.28635 -0.7195,0.33455 -1.291,0.8042 -1.714,1.40935 -0.424,0.60545 -0.8115,1.2421 -1.163,1.9109 -0.128,-0.5097 -0.3155,-0.983 -0.5635,-1.4212 -0.2475,-0.43785 -0.551,-0.82 -0.9105,-1.14665 -0.36,-0.32605 -0.764,-0.5809 -1.2105,-0.76425 -0.4475,-0.1827 -0.9195,-0.2745 -1.415,-0.2745 -0.479,0 -0.9225,0.0918 -1.33,0.2745 -0.4075,0.18335 -0.779,0.4179 -1.115,0.70455 -0.3355,0.28695 -0.639,0.6091 -0.911,0.96755 -0.2715,0.3582 -0.5115,0.71275 -0.719,1.06275 -0.0325,-0.41395 -0.068,-0.77605 -0.1075,-1.087 -0.0405,-0.31025 -0.1125,-0.573 -0.216,-0.78785 -0.104,-0.21515 -0.2515,-0.37815 -0.4435,-0.4897 -0.192,-0.1112 -0.4635,-0.16725 -0.815,-0.16725 -0.176,0 -0.352,0.03575 -0.5275,0.10725 -0.176,0.07185 -0.332,0.17155 -0.467496,0.2988 -0.136,0.1279 -0.2395,0.2827 -0.3115,0.46575 -0.072,0.18305 -0.0915,0.39425 -0.06,0.633 0.016,0.17545 0.06,0.3861 0.132,0.63305 0.0715,0.24695 0.1395,0.5697 0.2035,0.96725 0.064,0.3982 0.116,0.88 0.155996,1.44515 0.04,0.56545 0.0515,1.25815 0.036,2.07815 -0.0165,0.8203 -0.076,1.77935 -0.179996,2.8781 -0.104,1.0988 -0.268,2.3727 -0.4915,3.8215 -0.032,0.3345 0.096,0.60545 0.384,0.8124 0.287496,0.20665 0.614996,0.32605 0.982496,0.35815 0.3675,0.03185 0.7155,-0.0321 1.043,-0.1909 0.3275,-0.1597 0.5155,-0.43815 0.563,-0.83605 0.048,-0.74845 0.14,-1.5445 0.276,-2.38875 0.1355,-0.8436 0.3035,-1.67965 0.5035,-2.50785 0.1995,-0.82785 0.427,-1.616 0.683,-2.3648 0.2555,-0.74845 0.5395,-1.40905 0.851,-1.9824 0.312,-0.5733 0.6355,-1.0309 0.971,-1.3733 0.3355,-0.3424 0.687,-0.51365 1.055,-0.51365 0.447,0 0.7945,0.20275 1.0425,0.6088 0.2475,0.40635 0.423,0.92815 0.5275,1.5645 0.1035,0.6373 0.1515,1.33425 0.144,2.0903 -0.008,0.75635 -0.0405,1.4848 -0.096,2.1854 -0.056,0.7009 -0.12,1.32575 -0.192,1.87515 -0.072,0.5494 -0.124,0.92785 -0.1555,1.1345 0,0.3664 0.1395,0.6567 0.419,0.87185 0.2795,0.2148 0.591,0.3424 0.935,0.3821 0.344,0.04 0.667,-0.02395 0.971,-0.1912 0.3035,-0.1673 0.4795,-0.4494 0.5275,-0.8479 0.1595,-1.14635 0.3795,-2.2966 0.659,-3.45115 0.2795,-1.1545 0.5995,-2.18935 0.959,-3.1051 0.3595,-0.91575 0.759,-1.6642 1.1985,-2.2454 0.4395,-0.5809 0.907,-0.87185 1.4025,-0.87185 0.2555,0 0.4515,0.17545 0.587,0.52545 0.136,0.3503 0.204,0.8279 0.204,1.43305 0,0.44605 -0.036,0.9039 -0.1075,1.3736 -0.0725,0.4697 -0.156,0.95545 -0.252,1.45695 -0.096,0.5018 -0.18,1.01515 -0.252,1.5406 -0.0715,0.52575 -0.1075,1.0748 -0.1075,1.64815 0,0.39815 0.04,0.85995 0.12,1.3854 0.0795,0.52515 0.231,1.02335 0.455,1.4927 0.224,0.47 0.5315,0.8679 0.9235,1.19425 0.3915,0.32635 0.8905,0.4897 1.4975,0.4897 0.9115,0 1.718,-0.19515 2.4215,-0.58515 0.703,-0.39 1.3065,-0.8994 1.81,-1.52845 0.026,-0.03305 0.05,-0.0682 0.0755,-0.1009 0.0385,0.093 0.0725,0.1915 0.116,0.27995 0.3435,0.7006 0.811,1.2418 1.4025,1.62425 0.591,0.3821 1.2865,0.593 2.086,0.633 0.7985,0.0394 1.6695,-0.10785 2.613,-0.4421 0.7025,-0.25485 1.314,-0.57335 1.8335,-0.95545 0.519,-0.3821 0.9865,-0.84785 1.402,-1.39725 0.416,-0.5494 0.795,-1.1824 1.139,-1.89875 0.344,-0.71695 0.691,-1.53665 1.0425,-2.4606 0.064,-0.2542 0.004,-0.4812 -0.1795,-0.68055 -0.184,-0.1988 -0.4075,-0.3382 -0.6715,-0.4182 z"
     fill="#0D0C23"
     id="path17"
     style="fill:#ffffff;fill-opacity:1;stroke-width:0.5" />
  <path
     fill-rule="evenodd"
     clip-rule="evenodd"
     d="m 146.2167,24.00157 c -0.08,0.47 -0.1875,0.98785 -0.3235,1.5527 -0.136,0.56545 -0.3075,1.1506 -0.5155,1.75575 -0.2075,0.6051 -0.4635,1.15055 -0.767,1.636 -0.3035,0.48605 -0.6515,0.8718 -1.0425,1.1585 -0.392,0.28665 -0.843,0.40605 -1.3545,0.35815 -0.256,-0.0315 -0.452,-0.20665 -0.5875,-0.52545 -0.136,-0.31815 -0.2075,-0.7245 -0.216,-1.21815 -0.008,-0.49335 0.036,-1.03485 0.132,-1.6242 0.096,-0.5888 0.2435,-1.16635 0.444,-1.7318 0.1995,-0.56485 0.443,-1.08665 0.7305,-1.56455 0.288,-0.47755 0.6195,-0.84785 0.995,-1.11055 0.3755,-0.26275 0.7875,-0.38575 1.2345,-0.3703 0.4475,0.01605 0.927,0.23875 1.4385,0.66875 -0.0325,0.2073 -0.088,0.54575 -0.168,1.01515 z m 8.522,1.82725 c -0.248,-0.1273 -0.5035,-0.15485 -0.767,-0.08335 -0.2635,0.0715 -0.4515,0.31455 -0.563,0.7285 -0.064,0.44605 -0.208,0.9712 -0.4315,1.5763 -0.224,0.60515 -0.5,1.1788 -0.827,1.7197 -0.328,0.5415 -0.7035,0.9915 -1.127,1.34965 -0.4235,0.3585 -0.875,0.52185 -1.354,0.4894 -0.4,-0.0315 -0.68,-0.23455 -0.839,-0.60875 -0.1605,-0.37425 -0.244,-0.84365 -0.252,-1.4094 -0.008,-0.56485 0.048,-1.2018 0.1675,-1.91055 0.12,-0.7085 0.264,-1.41305 0.4315,-2.11425 0.168,-0.7003 0.34,-1.3733 0.516,-2.01815 0.1755,-0.6448 0.319,-1.19025 0.4315,-1.636 0.1275,-0.3982 0.0875,-0.73635 -0.12,-1.01545 -0.208,-0.2782 -0.4675,-0.4776 -0.779,-0.59695 -0.312,-0.1194 -0.628,-0.15125 -0.9475,-0.0955 -0.3195,0.0558 -0.527,0.227 -0.623,0.51335 -0.943,-0.8121 -1.85,-1.25 -2.7205,-1.3136 -0.8715,-0.06365 -1.6745,0.12755 -2.4095,0.5733 -0.7355,0.44575 -1.3865,1.0906 -1.9535,1.93485 -0.5675,0.8442 -1.027,1.7636 -1.379,2.75875 -0.3515,0.9951 -0.571,2.01055 -0.659,3.0454 -0.088,1.0351 -0.02,1.97875 0.204,2.83055 0.224,0.8518 0.619,1.54875 1.1865,2.08965 0.567,0.5415 1.3385,0.81245 2.3135,0.81245 0.4315,0 0.847,-0.0876 1.2465,-0.26275 0.399,-0.17545 0.767,-0.3824 1.1025,-0.6212 0.3355,-0.2388 0.631,-0.4897 0.8875,-0.7524 0.255,-0.26275 0.455,-0.4815 0.599,-0.65695 0.1115,0.5733 0.2955,1.05935 0.5515,1.45725 0.255,0.39785 0.547,0.7248 0.8745,0.97905 0.3275,0.25455 0.6715,0.4418 1.031,0.5615 0.3595,0.1194 0.7075,0.1791 1.0425,0.1791 0.7515,0 1.454,-0.25485 2.11,-0.76455 0.655,-0.50905 1.2425,-1.1345 1.762,-1.8748 0.519,-0.7406 0.947,-1.5206 1.282,-2.3409 0.336,-0.81995 0.5595,-1.54845 0.6715,-2.1857 0.112,-0.2388 0.0915,-0.4894 -0.06,-0.7521 -0.152,-0.26275 -0.3515,-0.4576 -0.5995,-0.58545 z"
     fill="#0D0C23"
     id="path18"
     style="fill:#ffffff;fill-opacity:1;stroke-width:0.5" />
  <path
     fill-rule="evenodd"
     clip-rule="evenodd"
     d="m 197.8892,39.01547 c -0.1355,0.541 -0.3475,0.9995 -0.6355,1.3735 -0.2875,0.374 -0.647,0.569 -1.0785,0.5855 -0.2715,0.0155 -0.4795,-0.128 -0.6235,-0.43 -0.1435,-0.303 -0.2435,-0.693 -0.2995,-1.1705 -0.056,-0.478 -0.08,-1.0115 -0.072,-1.6005 0.008,-0.589 0.032,-1.1705 0.072,-1.7437 0.0395,-0.573 0.088,-1.10695 0.144,-1.60025 0.0555,-0.49395 0.0995,-0.87545 0.1315,-1.14635 0.5435,0.0636 0.9955,0.29815 1.3545,0.7045 0.3595,0.40605 0.6355,0.8876 0.827,1.44515 0.192,0.55725 0.3035,1.15865 0.336,1.80315 0.0315,0.645 -0.0205,1.238 -0.156,1.7795 z m -8.678,0 c -0.1355,0.541 -0.3475,0.9995 -0.635,1.3735 -0.2875,0.374 -0.6475,0.569 -1.079,0.5855 -0.2715,0.0155 -0.479,-0.128 -0.623,-0.43 -0.144,-0.303 -0.244,-0.693 -0.2995,-1.1705 -0.0565,-0.478 -0.0805,-1.0115 -0.072,-1.6005 0.007,-0.589 0.0315,-1.1705 0.072,-1.7437 0.0395,-0.573 0.0875,-1.10695 0.1435,-1.60025 0.056,-0.49395 0.0995,-0.87545 0.132,-1.14635 0.543,0.0636 0.995,0.29815 1.354,0.7045 0.36,0.40605 0.6355,0.8876 0.8275,1.44515 0.192,0.55725 0.3035,1.15865 0.3355,1.80315 0.0315,0.645 -0.0205,1.238 -0.156,1.7795 z m -8.905,-13.56675 c -0.0165,0.3818 -0.0525,0.7203 -0.1085,1.01485 -0.056,0.29515 -0.1315,0.4818 -0.2275,0.5615 -0.176,-0.09575 -0.392,-0.3421 -0.6475,-0.7406 -0.2555,-0.39785 -0.455,-0.84815 -0.5995,-1.3497 -0.1435,-0.5015 -0.188,-0.9948 -0.1315,-1.48085 0.0555,-0.48545 0.3075,-0.86335 0.755,-1.13455 0.1755,-0.09545 0.3275,-0.0597 0.4555,0.1076 0.128,0.16725 0.2315,0.40995 0.312,0.72845 0.0795,0.3188 0.135,0.68485 0.1675,1.0988 0.032,0.4142 0.04,0.8121 0.0245,1.1945 z m -2.122,4.7651 c -0.248,0.2624 -0.524,0.48935 -0.827,0.6806 -0.304,0.1912 -0.6155,0.3345 -0.935,0.43 -0.32,0.09575 -0.6075,0.11935 -0.863,0.0715 -0.719,-0.14305 -1.2705,-0.45395 -1.654,-0.9315 -0.3835,-0.4776 -0.6275,-1.0388 -0.731,-1.6836 -0.104,-0.64515 -0.0925,-1.33395 0.036,-2.06635 0.1275,-0.7324 0.343,-1.413 0.647,-2.0421 0.3035,-0.6291 0.6715,-1.1706 1.1025,-1.6242 0.4315,-0.45395 0.903,-0.73635 1.4145,-0.8482 -0.192,0.8121 -0.2555,1.6524 -0.192,2.52 0.064,0.86785 0.272,1.6839 0.6235,2.4481 0.2235,0.46245 0.4915,0.88395 0.803,1.26605 0.312,0.38245 0.6915,0.7088 1.139,0.9794 -0.128,0.2709 -0.316,0.53755 -0.5635,0.8003 z m 26.525,-4.5263 c 0.048,-0.36605 0.1195,-0.75275 0.216,-1.1588 0.0955,-0.40575 0.2155,-0.79995 0.359,-1.1821 0.144,-0.3824 0.312,-0.7127 0.504,-0.9912 0.192,-0.27845 0.395,-0.47785 0.611,-0.59725 0.216,-0.1194 0.4355,-0.10755 0.659,0.03575 0.24,0.14365 0.3875,0.44605 0.4435,0.90755 0.056,0.46215 0,0.95545 -0.1675,1.4812 -0.168,0.52545 -0.4675,1.0191 -0.899,1.4806 -0.431,0.4624 -1.015,0.76455 -1.75,0.90785 -0.032,-0.2227 -0.024,-0.51725 0.024,-0.8836 z m 9.661,0 c 0.048,-0.36605 0.1195,-0.75275 0.2155,-1.1588 0.096,-0.40575 0.216,-0.79995 0.36,-1.1821 0.1435,-0.3824 0.311,-0.7127 0.503,-0.9912 0.192,-0.27845 0.396,-0.47785 0.6115,-0.59725 0.216,-0.1194 0.4355,-0.10755 0.659,0.03575 0.24,0.14365 0.3875,0.44605 0.4435,0.90755 0.056,0.46215 0,0.95545 -0.1675,1.4812 -0.168,0.52545 -0.4675,1.0191 -0.899,1.4806 -0.4315,0.4624 -1.015,0.76455 -1.75,0.90785 -0.032,-0.2227 -0.024,-0.51725 0.024,-0.8836 z m 8.9775,1.39725 c -0.184,-0.1988 -0.4075,-0.3382 -0.671,-0.4182 -0.264,-0.0794 -0.5155,-0.08725 -0.7555,-0.0236 -0.2395,0.0636 -0.392,0.2309 -0.4555,0.5015 -0.128,0.5097 -0.3315,1.0312 -0.611,1.5642 -0.28,0.53395 -0.6235,1.0394 -1.031,1.51695 -0.4075,0.47755 -0.867,0.9 -1.378,1.26605 -0.512,0.36635 -1.047,0.6291 -1.606,0.78785 -0.56,0.17575 -1.0235,0.19545 -1.391,0.06 -0.3675,-0.13515 -0.659,-0.36605 -0.875,-0.6924 -0.2155,-0.32665 -0.371,-0.7206 -0.4675,-1.1827 -0.0955,-0.4615 -0.152,-0.9391 -0.1675,-1.433 0.911,0.0639 1.722,-0.0991 2.433,-0.4897 0.711,-0.39 1.3145,-0.9079 1.8105,-1.5527 0.495,-0.64455 0.8705,-1.3691 1.126,-2.1733 0.2555,-0.80425 0.3995,-1.60425 0.432,-2.4006 0.0155,-0.74845 -0.0965,-1.3815 -0.336,-1.89905 -0.2395,-0.51725 -0.563,-0.9197 -0.9705,-1.20605 -0.408,-0.28695 -0.875,-0.45395 -1.403,-0.5018 -0.527,-0.0479 -1.0625,0.02425 -1.606,0.21485 -0.6555,0.2233 -1.2105,0.58545 -1.6655,1.08695 -0.4555,0.5018 -0.8355,1.0833 -1.139,1.7436 -0.304,0.6612 -0.5435,1.3733 -0.7195,2.13785 -0.176,0.76425 -0.3035,1.51695 -0.383,2.25725 -0.078,0.71845 -0.12,1.40605 -0.1295,2.0642 -0.0605,0.1312 -0.125,0.26305 -0.1945,0.39575 -0.28,0.53395 -0.6235,1.0394 -1.031,1.51695 -0.407,0.47755 -0.867,0.9 -1.378,1.26605 -0.5115,0.36635 -1.047,0.6291 -1.606,0.78785 -0.56,0.17575 -1.023,0.19545 -1.3905,0.06 -0.368,-0.13515 -0.6595,-0.36605 -0.875,-0.6924 -0.2155,-0.32665 -0.3715,-0.7206 -0.4675,-1.1827 -0.096,-0.4615 -0.152,-0.9391 -0.168,-1.433 0.911,0.0639 1.722,-0.0991 2.4335,-0.4897 0.7105,-0.39 1.314,-0.9079 1.8095,-1.5527 0.4955,-0.64455 0.871,-1.3691 1.1265,-2.1733 0.2555,-0.80425 0.4,-1.60425 0.4315,-2.4006 0.016,-0.74845 -0.0955,-1.3815 -0.335,-1.89905 -0.24,-0.51725 -0.564,-0.9197 -0.9715,-1.20605 -0.4075,-0.28695 -0.8745,-0.45395 -1.402,-0.5018 -0.5275,-0.0479 -1.063,0.02425 -1.606,0.21485 -0.656,0.2233 -1.211,0.58545 -1.666,1.08695 -0.4555,0.5018 -0.8355,1.0833 -1.139,1.7436 -0.3035,0.6612 -0.543,1.3733 -0.719,2.13785 -0.176,0.76425 -0.304,1.51695 -0.3835,2.25725 -0.0455,0.41755 -0.0755,0.8224 -0.098,1.21995 -0.1545,0.13095 -0.305,0.26275 -0.4655,0.39215 -0.551,0.44605 -1.131,0.84785 -1.738,1.20635 -0.6075,0.35845 -1.239,0.653 -1.8935,0.8839 -0.656,0.2309 -1.327,0.3703 -2.014,0.4179 l 1.4865,-15.8601 c 0.096,-0.33455 0.048,-0.62875 -0.144,-0.8836 -0.1915,-0.25485 -0.4395,-0.43 -0.743,-0.52545 -0.3035,-0.09575 -0.6275,-0.0876 -0.971,0.02365 -0.344,0.1118 -0.627,0.36665 -0.851,0.7642 -0.112,0.60545 -0.228,1.4333 -0.3475,2.4842 -0.12,1.0509 -0.24,2.19755 -0.3595,3.43965 -0.12,1.2421 -0.24,2.5239 -0.3595,3.8454 -0.12,1.3221 -0.224,2.55605 -0.312,3.7024 -0.004,0.0509 -0.007,0.09695 -0.011,0.14725 -0.14,0.1182 -0.2755,0.23725 -0.4205,0.35425 -0.551,0.44605 -1.131,0.84785 -1.738,1.20635 -0.6075,0.35845 -1.2385,0.653 -1.8935,0.8839 -0.6555,0.2309 -1.327,0.3703 -2.014,0.4179 l 1.4865,-15.8601 c 0.096,-0.33455 0.048,-0.62875 -0.1435,-0.8836 -0.192,-0.25485 -0.44,-0.43 -0.7435,-0.52545 -0.3035,-0.09575 -0.6275,-0.0876 -0.971,0.02365 -0.3435,0.1118 -0.627,0.36665 -0.851,0.7642 -0.112,0.60545 -0.2275,1.4333 -0.347,2.4842 -0.1205,1.0509 -0.24,2.19755 -0.36,3.43965 -0.12,1.2421 -0.2395,2.5239 -0.3595,3.8454 -0.1195,1.3221 -0.224,2.55605 -0.3115,3.7024 -0.002,0.023 -0.003,0.0439 -0.005,0.06695 -0.251,0.11605 -0.5245,0.2179 -0.822,0.30335 -0.3035,0.08785 -0.647,0.13965 -1.0305,0.15545 0.064,-0.287 0.1155,-0.60545 0.1555,-0.95575 0.04,-0.35 0.0725,-0.71635 0.0965,-1.0988 0.024,-0.3818 0.0315,-0.7642 0.024,-1.14635 -0.008,-0.3824 -0.0285,-0.7324 -0.06,-1.0512 -0.0805,-0.6842 -0.228,-1.3333 -0.4435,-1.9466 -0.216,-0.61275 -0.5075,-1.12605 -0.875,-1.5406 -0.368,-0.41395 -0.827,-0.6927 -1.379,-0.83575 -0.551,-0.14335 -1.1945,-0.09575 -1.929,0.14305 -1.0875,-0.14305 -2.066,-0.04335 -2.937,0.29875 -0.871,0.34275 -1.6265,0.84 -2.2655,1.4927 -0.639,0.65335 -1.1625,1.4212 -1.57,2.30515 -0.4075,0.8836 -0.6795,1.7915 -0.815,2.7227 -0.0575,0.3948 -0.0855,0.78785 -0.094,1.17995 -0.2475,0.50485 -0.5185,0.94605 -0.817,1.31635 -0.4235,0.52545 -0.863,0.95545 -1.3185,1.2897 -0.4555,0.3345 -0.907,0.58935 -1.354,0.7645 -0.448,0.17545 -0.8475,0.29485 -1.199,0.3582 -0.4155,0.0797 -0.815,0.08785 -1.1985,0.02395 -0.3835,-0.06335 -0.7355,-0.2467 -1.0545,-0.5494 -0.256,-0.22275 -0.452,-0.5812 -0.5875,-1.07485 -0.136,-0.4936 -0.2155,-1.0545 -0.2395,-1.6839 -0.024,-0.6291 0,-1.28605 0.0715,-1.9706 0.072,-0.6845 0.1955,-1.3336 0.3715,-1.9466 0.176,-0.61305 0.399,-1.1624 0.6715,-1.6485 0.271,-0.4851 0.591,-0.8318 0.959,-1.03875 0.207,0.0321 0.3355,0.15515 0.3835,0.37 0.048,0.21515 0.0595,0.47 0.0355,0.76455 -0.0235,0.2948 -0.0595,0.59725 -0.1075,0.90755 -0.048,0.3106 -0.072,0.5697 -0.072,0.77635 0.08,0.43 0.2355,0.76455 0.4675,1.0033 0.2315,0.2388 0.4915,0.3785 0.779,0.4179 0.2875,0.04 0.571,-0.0276 0.8515,-0.20305 0.279,-0.17485 0.5065,-0.4536 0.683,-0.83605 0.0155,0.01605 0.0395,0.02395 0.0715,0.02395 l 0.336,-3.0333 c 0.0955,-0.41425 0.0315,-0.7803 -0.192,-1.09875 -0.224,-0.3185 -0.5195,-0.5018 -0.887,-0.5494 -0.4635,-0.6688 -1.091,-1.023 -1.882,-1.063 -0.791,-0.0397 -1.602,0.21905 -2.433,0.77635 -0.5115,0.36665 -0.963,0.8718 -1.3545,1.51665 -0.392,0.64515 -0.711,1.3615 -0.9585,2.14965 -0.2485,0.78815 -0.424,1.6206 -0.5275,2.49635 -0.104,0.8757 -0.124,1.72785 -0.0605,2.5554 0.064,0.82845 0.212,1.60875 0.444,2.34085 0.2315,0.73275 0.555,1.34575 0.971,1.8391 0.3515,0.43 0.7505,0.7448 1.198,0.9439 0.4475,0.1991 0.915,0.32215 1.4025,0.37 0.4875,0.0476 0.971,0.0276 1.4505,-0.0597 0.4795,-0.08725 0.935,-0.2106 1.3665,-0.3703 0.559,-0.20665 1.135,-0.4697 1.726,-0.78815 0.591,-0.3182 1.1585,-0.7006 1.702,-1.14665 0.286,-0.23455 0.561,-0.4903 0.827,-0.76455 0.121,0.2994 0.2565,0.5891 0.4195,0.8603 0.4315,0.71635 1.0145,1.29785 1.75,1.7436 0.7345,0.44575 1.638,0.6603 2.7085,0.64485 1.151,-0.01605 2.2135,-0.30635 3.1885,-0.8718 0.975,-0.56485 1.774,-1.39755 2.3975,-2.49605 0.9335,0 1.852,-0.1533 2.755,-0.45785 -0.007,0.09635 -0.0155,0.19785 -0.0225,0.2909 -0.0635,0.84395 -0.096,1.41695 -0.096,1.71965 -0.0155,0.52545 -0.0515,1.17425 -0.1075,1.94635 -0.056,0.7724 -0.092,1.58455 -0.108,2.43615 -0.0155,0.852 0.016,1.712 0.096,2.58 0.08,0.8675 0.2475,1.656 0.5035,2.365 0.255,0.708 0.6185,1.3095 1.0905,1.8035 0.471,0.493 1.0905,0.788 1.858,0.8835 0.815,0.111 1.518,-0.032 2.1095,-0.43 0.591,-0.3985 1.0705,-0.9435 1.4385,-1.636 0.3675,-0.693 0.6265,-1.493 0.779,-2.4005 0.1515,-0.908 0.1955,-1.8195 0.132,-2.7355 -0.0645,-0.91555 -0.2325,-1.7792 -0.504,-2.591 -0.2715,-0.8124 -0.6475,-1.4812 -1.1265,-2.00695 0.288,-0.0791 0.631,-0.2303 1.031,-0.4536 0.399,-0.22275 0.8105,-0.47365 1.2345,-0.75245 0.104,-0.06845 0.2065,-0.1406 0.3105,-0.2109 -0.039,0.56425 -0.059,0.96665 -0.059,1.2024 -0.0155,0.52545 -0.0515,1.17425 -0.108,1.94635 -0.0555,0.7724 -0.0915,1.58455 -0.1075,2.43615 -0.016,0.852 0.016,1.712 0.096,2.58 0.0795,0.8675 0.2475,1.656 0.503,2.365 0.2555,0.708 0.6195,1.3095 1.0905,1.8035 0.4715,0.493 1.091,0.788 1.8585,0.8835 0.8145,0.111 1.5175,-0.032 2.109,-0.43 0.5915,-0.3985 1.071,-0.9435 1.4385,-1.636 0.3675,-0.693 0.627,-1.493 0.779,-2.4005 0.152,-0.908 0.1955,-1.8195 0.132,-2.7355 -0.064,-0.91555 -0.232,-1.7792 -0.503,-2.591 -0.2725,-0.8124 -0.6475,-1.4812 -1.1275,-2.00695 0.288,-0.0791 0.6315,-0.2303 1.031,-0.4536 0.3995,-0.22275 0.811,-0.47365 1.235,-0.75245 0.22,-0.1448 0.4385,-0.2942 0.657,-0.44785 0.082,0.77875 0.259,1.4618 0.541,2.03635 0.344,0.7009 0.811,1.2421 1.4025,1.6245 0.591,0.3818 1.2865,0.593 2.086,0.6327 0.799,0.0394 1.6695,-0.10755 2.613,-0.4421 0.703,-0.25455 1.314,-0.573 1.8335,-0.95515 0.519,-0.3824 0.9865,-0.84815 1.4025,-1.39725 0.024,-0.0318 0.0465,-0.06635 0.07,-0.09845 0.074,0.223 0.156,0.43725 0.2535,0.63575 0.344,0.7009 0.8115,1.2421 1.4025,1.6245 0.591,0.3818 1.2865,0.593 2.0855,0.6327 0.799,0.0394 1.67,-0.10755 2.613,-0.4421 0.7035,-0.25455 1.3145,-0.573 1.834,-0.95515 0.519,-0.3824 0.9865,-0.84815 1.4025,-1.39725 0.4155,-0.54965 0.7945,-1.1827 1.1385,-1.89905 0.3435,-0.71665 0.691,-1.53635 1.043,-2.46025 0.0635,-0.25455 0.004,-0.4815 -0.18,-0.6806 z"
     fill="#0D0C23"
     id="path19"
     style="fill:#ffffff;fill-opacity:1;stroke-width:0.5" />
</svg>
